<svg enable-background="new 0 0 504 504" viewBox="0 0 504 504" xmlns="http://www.w3.org/2000/svg" xmlns:xlink="http://www.w3.org/1999/xlink"><linearGradient id="a" gradientUnits="userSpaceOnUse" x1="332.2184" x2="224.9586" y1="47.6848" y2="472.2125"><stop offset="0" stop-color="#faae42"/><stop offset="1" stop-color="#ef3e31"/></linearGradient><path d="m307.4 40.9c213.7 145.4 144.4 305.2 144.4 305.2s60.7 68.5 36.3 128.5c0 0-25.2-41.9-67-41.9-40.4 0-64.3 41.9-145.9 41.9-181.4 0-267.4-151.6-267.4-151.6 163.5 107.8 275.2 31.4 275.2 31.4-73.8-42.7-230.4-247.1-230.4-247.1 136.5 116.2 195.4 146.7 195.4 146.7-35.4-29-134.1-171.1-134.1-171.1 79 79.9 236 191.3 236 191.3 45-123.1-42.5-233.3-42.5-233.3z" fill="url(#a)"/></svg>